<svg width="1442" height="794" viewBox="0 0 1442 794" fill="none" xmlns="http://www.w3.org/2000/svg">
<g clip-path="url(#clip0_2534_17043)">
<rect x="1441" y="1" width="24" height="1440" transform="rotate(90 1441 1)" stroke="#393953" stroke-opacity="0.3"/>
<rect x="1441" y="25" width="24" height="1440" transform="rotate(90 1441 25)" stroke="#393953" stroke-opacity="0.3"/>
<rect x="1441" y="49" width="24" height="1440" transform="rotate(90 1441 49)" stroke="#393953" stroke-opacity="0.3"/>
<rect x="1441" y="73" width="24" height="1440" transform="rotate(90 1441 73)" stroke="#393953" stroke-opacity="0.3"/>
<rect x="1441" y="97" width="24" height="1440" transform="rotate(90 1441 97)" stroke="#393953" stroke-opacity="0.3"/>
<rect x="1441" y="121" width="24" height="1440" transform="rotate(90 1441 121)" stroke="#393953" stroke-opacity="0.3"/>
<rect x="1441" y="145" width="24" height="1440" transform="rotate(90 1441 145)" stroke="#393953" stroke-opacity="0.3"/>
<rect x="1441" y="169" width="24" height="1440" transform="rotate(90 1441 169)" stroke="#393953" stroke-opacity="0.3"/>
<rect x="1441" y="193" width="24" height="1440" transform="rotate(90 1441 193)" stroke="#393953" stroke-opacity="0.3"/>
<rect x="1441" y="217" width="24" height="1440" transform="rotate(90 1441 217)" stroke="#393953" stroke-opacity="0.3"/>
<rect x="1441" y="241" width="24" height="1440" transform="rotate(90 1441 241)" stroke="#393953" stroke-opacity="0.3"/>
<rect x="1441" y="265" width="24" height="1440" transform="rotate(90 1441 265)" stroke="#393953" stroke-opacity="0.3"/>
<rect x="1441" y="289" width="24" height="1440" transform="rotate(90 1441 289)" stroke="#393953" stroke-opacity="0.3"/>
<rect x="1441" y="313" width="24" height="1440" transform="rotate(90 1441 313)" stroke="#393953" stroke-opacity="0.3"/>
<rect x="1441" y="337" width="24" height="1440" transform="rotate(90 1441 337)" stroke="#393953" stroke-opacity="0.3"/>
<rect x="1441" y="361" width="24" height="1440" transform="rotate(90 1441 361)" stroke="#393953" stroke-opacity="0.3"/>
<rect x="1441" y="385" width="24" height="1440" transform="rotate(90 1441 385)" stroke="#393953" stroke-opacity="0.3"/>
<rect x="1441" y="409" width="24" height="1440" transform="rotate(90 1441 409)" stroke="#393953" stroke-opacity="0.3"/>
<rect x="1441" y="433" width="24" height="1440" transform="rotate(90 1441 433)" stroke="#393953" stroke-opacity="0.3"/>
<rect x="1441" y="457" width="24" height="1440" transform="rotate(90 1441 457)" stroke="#393953" stroke-opacity="0.3"/>
<rect x="1441" y="481" width="24" height="1440" transform="rotate(90 1441 481)" stroke="#393953" stroke-opacity="0.3"/>
<rect x="1441" y="505" width="24" height="1440" transform="rotate(90 1441 505)" stroke="#393953" stroke-opacity="0.3"/>
<rect x="1441" y="529" width="24" height="1440" transform="rotate(90 1441 529)" stroke="#393953" stroke-opacity="0.3"/>
<rect x="1441" y="553" width="24" height="1440" transform="rotate(90 1441 553)" stroke="#393953" stroke-opacity="0.3"/>
<rect x="1441" y="577" width="24" height="1440" transform="rotate(90 1441 577)" stroke="#393953" stroke-opacity="0.3"/>
<rect x="1441" y="601" width="24" height="1440" transform="rotate(90 1441 601)" stroke="#393953" stroke-opacity="0.3"/>
<rect x="1441" y="625" width="24" height="1440" transform="rotate(90 1441 625)" stroke="#393953" stroke-opacity="0.3"/>
<rect x="1441" y="649" width="24" height="1440" transform="rotate(90 1441 649)" stroke="#393953" stroke-opacity="0.3"/>
<rect x="1441" y="673" width="24" height="1440" transform="rotate(90 1441 673)" stroke="#393953" stroke-opacity="0.3"/>
<rect x="1441" y="697" width="24" height="1440" transform="rotate(90 1441 697)" stroke="#393953" stroke-opacity="0.3"/>
<rect x="1441" y="721" width="24" height="1440" transform="rotate(90 1441 721)" stroke="#393953" stroke-opacity="0.3"/>
<rect x="1441" y="745" width="24" height="1440" transform="rotate(90 1441 745)" stroke="#393953" stroke-opacity="0.3"/>
<rect x="1441" y="769" width="24" height="1440" transform="rotate(90 1441 769)" stroke="#393953" stroke-opacity="0.3"/>
<rect x="1441" y="793" width="24" height="1440" transform="rotate(90 1441 793)" stroke="#393953" stroke-opacity="0.3"/>
</g>
<rect x="1441" y="25" width="24" height="1440" transform="rotate(90 1441 25)" stroke="#393953" stroke-opacity="0.3"/>
<rect x="1" y="1" width="24" height="792" stroke="#393953" stroke-opacity="0.3"/>
<rect x="25" y="1" width="24" height="792" stroke="#393953" stroke-opacity="0.3"/>
<rect x="49" y="1" width="24" height="792" stroke="#393953" stroke-opacity="0.3"/>
<rect x="73" y="1" width="24" height="792" stroke="#393953" stroke-opacity="0.3"/>
<rect x="97" y="1" width="24" height="792" stroke="#393953" stroke-opacity="0.3"/>
<rect x="121" y="1" width="24" height="792" stroke="#393953" stroke-opacity="0.3"/>
<rect x="145" y="1" width="24" height="792" stroke="#393953" stroke-opacity="0.3"/>
<rect x="169" y="1" width="24" height="792" stroke="#393953" stroke-opacity="0.3"/>
<rect x="193" y="1" width="24" height="792" stroke="#393953" stroke-opacity="0.3"/>
<rect x="217" y="1" width="24" height="792" stroke="#393953" stroke-opacity="0.3"/>
<rect x="241" y="1" width="24" height="792" stroke="#393953" stroke-opacity="0.3"/>
<rect x="265" y="1" width="24" height="792" stroke="#393953" stroke-opacity="0.3"/>
<rect x="289" y="1" width="24" height="792" stroke="#393953" stroke-opacity="0.3"/>
<rect x="313" y="1" width="24" height="792" stroke="#393953" stroke-opacity="0.3"/>
<rect x="337" y="1" width="24" height="792" stroke="#393953" stroke-opacity="0.3"/>
<rect x="361" y="1" width="24" height="792" stroke="#393953" stroke-opacity="0.3"/>
<rect x="385" y="1" width="24" height="792" stroke="#393953" stroke-opacity="0.3"/>
<rect x="409" y="1" width="24" height="792" stroke="#393953" stroke-opacity="0.3"/>
<rect x="433" y="1" width="24" height="792" stroke="#393953" stroke-opacity="0.3"/>
<rect x="457" y="1" width="24" height="792" stroke="#393953" stroke-opacity="0.3"/>
<rect x="481" y="1" width="24" height="792" stroke="#393953" stroke-opacity="0.3"/>
<rect x="505" y="1" width="24" height="792" stroke="#393953" stroke-opacity="0.3"/>
<rect x="529" y="1" width="24" height="792" stroke="#393953" stroke-opacity="0.3"/>
<rect x="553" y="1" width="24" height="792" stroke="#393953" stroke-opacity="0.3"/>
<rect x="577" y="1" width="24" height="792" stroke="#393953" stroke-opacity="0.3"/>
<rect x="601" y="1" width="24" height="792" stroke="#393953" stroke-opacity="0.3"/>
<rect x="625" y="1" width="24" height="792" stroke="#393953" stroke-opacity="0.3"/>
<rect x="649" y="1" width="24" height="792" stroke="#393953" stroke-opacity="0.3"/>
<rect x="673" y="1" width="24" height="792" stroke="#393953" stroke-opacity="0.3"/>
<rect x="697" y="1" width="24" height="792" stroke="#393953" stroke-opacity="0.3"/>
<rect x="721" y="1" width="24" height="792" stroke="#393953" stroke-opacity="0.3"/>
<rect x="745" y="1" width="24" height="792" stroke="#393953" stroke-opacity="0.3"/>
<rect x="769" y="1" width="24" height="792" stroke="#393953" stroke-opacity="0.3"/>
<rect x="793" y="1" width="24" height="792" stroke="#393953" stroke-opacity="0.3"/>
<rect x="817" y="1" width="24" height="792" stroke="#393953" stroke-opacity="0.3"/>
<rect x="841" y="1" width="24" height="792" stroke="#393953" stroke-opacity="0.3"/>
<rect x="865" y="1" width="24" height="792" stroke="#393953" stroke-opacity="0.3"/>
<rect x="889" y="1" width="24" height="792" stroke="#393953" stroke-opacity="0.3"/>
<rect x="913" y="1" width="24" height="792" stroke="#393953" stroke-opacity="0.3"/>
<rect x="937" y="1" width="24" height="792" stroke="#393953" stroke-opacity="0.3"/>
<rect x="961" y="1" width="24" height="792" stroke="#393953" stroke-opacity="0.3"/>
<rect x="985" y="1" width="24" height="792" stroke="#393953" stroke-opacity="0.3"/>
<rect x="1009" y="1" width="24" height="792" stroke="#393953" stroke-opacity="0.3"/>
<rect x="1033" y="1" width="24" height="792" stroke="#393953" stroke-opacity="0.3"/>
<rect x="1057" y="1" width="24" height="792" stroke="#393953" stroke-opacity="0.3"/>
<rect x="1081" y="1" width="24" height="792" stroke="#393953" stroke-opacity="0.3"/>
<rect x="1105" y="1" width="24" height="792" stroke="#393953" stroke-opacity="0.3"/>
<rect x="1129" y="1" width="24" height="792" stroke="#393953" stroke-opacity="0.3"/>
<rect x="1153" y="1" width="24" height="792" stroke="#393953" stroke-opacity="0.3"/>
<rect x="1177" y="1" width="24" height="792" stroke="#393953" stroke-opacity="0.3"/>
<rect x="1201" y="1" width="24" height="792" stroke="#393953" stroke-opacity="0.3"/>
<rect x="1225" y="1" width="24" height="792" stroke="#393953" stroke-opacity="0.3"/>
<rect x="1249" y="1" width="24" height="792" stroke="#393953" stroke-opacity="0.3"/>
<rect x="1273" y="1" width="24" height="792" stroke="#393953" stroke-opacity="0.3"/>
<rect x="1297" y="1" width="24" height="792" stroke="#393953" stroke-opacity="0.3"/>
<rect x="1321" y="1" width="24" height="792" stroke="#393953" stroke-opacity="0.3"/>
<rect x="1345" y="1" width="24" height="792" stroke="#393953" stroke-opacity="0.3"/>
<rect x="1369" y="1" width="24" height="792" stroke="#393953" stroke-opacity="0.3"/>
<rect x="1393" y="1" width="24" height="792" stroke="#393953" stroke-opacity="0.3"/>
<rect x="1417" y="1" width="24" height="792" stroke="#393953" stroke-opacity="0.3"/>
<defs>
<clipPath id="clip0_2534_17043">
<rect width="792" height="1440" fill="white" transform="translate(1441 1) rotate(90)"/>
</clipPath>
</defs>
</svg>
